<svg xmlns="http://www.w3.org/2000/svg" xmlns:xlink="http://www.w3.org/1999/xlink" width="1024" zoomAndPan="magnify" viewBox="0 0 768 225" height="300" preserveAspectRatio="xMidYMid meet" version="1.0"><defs><g/></defs><rect x="-76.8" width="921.6" fill="#ffffff" y="-22.5" height="270" fill-opacity="1"/><rect x="-76.8" width="921.6" fill="#ffffff" y="-22.5" height="270" fill-opacity="1"/><g fill="#225f87" fill-opacity="1"><g transform="translate(0.75, 188.799398)"><g><path d="M 90.84375 -9.84375 L 91.265625 -60.5 L 90.84375 -60.5 L 58.40625 -59.234375 L 57.984375 -59.234375 L 57.140625 -10.671875 C 57.140625 -7.179688 56.023438 -4.597656 53.796875 -2.921875 C 51.566406 -1.253906 48.738281 -0.175781 45.3125 0.3125 C 41.894531 0.800781 38.375 1.046875 34.75 1.046875 C 31.125 1.046875 27.632812 0.835938 24.28125 0.421875 C 20.9375 0.00390625 18.21875 -0.96875 16.125 -2.5 C 14.03125 -4.039062 12.84375 -6.488281 12.5625 -9.84375 L 13.1875 -140.671875 C 13.601562 -144.578125 14.960938 -147.4375 17.265625 -149.25 C 19.566406 -151.0625 22.5 -152.242188 26.0625 -152.796875 C 29.625 -153.359375 33.425781 -153.640625 37.46875 -153.640625 C 45.28125 -153.785156 50.96875 -152.738281 54.53125 -150.5 C 58.09375 -148.269531 59.59375 -144.085938 59.03125 -137.953125 L 57.984375 -92.734375 L 58.40625 -92.734375 L 91.265625 -93.984375 L 91.6875 -93.984375 C 91.6875 -101.378906 91.753906 -109.019531 91.890625 -116.90625 C 92.035156 -124.789062 92.109375 -132.570312 92.109375 -140.25 C 92.523438 -144.15625 93.914062 -146.945312 96.28125 -148.625 C 98.65625 -150.300781 101.65625 -151.347656 105.28125 -151.765625 C 108.914062 -152.179688 112.894531 -152.390625 117.21875 -152.390625 C 120.425781 -152.390625 123.597656 -152.144531 126.734375 -151.65625 C 129.878906 -151.164062 132.535156 -150.082031 134.703125 -148.40625 C 136.867188 -146.738281 137.953125 -144.085938 137.953125 -140.453125 C 137.671875 -123.148438 137.390625 -108.179688 137.109375 -95.546875 C 136.828125 -82.921875 136.546875 -72.070312 136.265625 -63 C 135.992188 -53.9375 135.785156 -46.226562 135.640625 -39.875 C 135.503906 -33.53125 135.398438 -28.050781 135.328125 -23.4375 C 135.253906 -18.832031 135.21875 -14.578125 135.21875 -10.671875 C 135.21875 -7.179688 134.101562 -4.597656 131.875 -2.921875 C 129.644531 -1.253906 126.816406 -0.175781 123.390625 0.3125 C 119.972656 0.800781 116.453125 1.046875 112.828125 1.046875 C 109.203125 1.046875 105.75 0.835938 102.46875 0.421875 C 99.1875 0.00390625 96.5 -0.96875 94.40625 -2.5 C 92.3125 -4.039062 91.125 -6.488281 90.84375 -9.84375 Z M 90.84375 -9.84375 "/></g></g></g><g fill="#225f87" fill-opacity="1"><g transform="translate(151.4592, 188.799398)"><g><path d="M 129.78125 -100.6875 L 127.484375 -8.375 C 127.765625 -5.445312 126.890625 -3.285156 124.859375 -1.890625 C 122.835938 -0.492188 120.222656 0.410156 117.015625 0.828125 C 113.804688 1.253906 110.523438 1.46875 107.171875 1.46875 C 100.617188 1.46875 96.117188 0.457031 93.671875 -1.5625 C 91.234375 -3.59375 89.941406 -6.28125 89.796875 -9.625 C 85.753906 -5.71875 80.972656 -3.171875 75.453125 -1.984375 C 69.941406 -0.796875 64.535156 -0.0664062 59.234375 0.203125 C 49.046875 0.484375 39.90625 -1.46875 31.8125 -5.65625 C 23.71875 -9.84375 17.332031 -16.117188 12.65625 -24.484375 C 7.988281 -32.859375 5.445312 -43.046875 5.03125 -55.046875 C 5.03125 -66.078125 7.015625 -75.953125 10.984375 -84.671875 C 14.960938 -93.390625 21.242188 -100.332031 29.828125 -105.5 C 38.410156 -110.664062 49.539062 -113.316406 63.21875 -113.453125 C 67.820312 -113.453125 72.878906 -112.648438 78.390625 -111.046875 C 83.898438 -109.441406 88.332031 -106.96875 91.6875 -103.625 C 92.664062 -107.800781 94.789062 -110.484375 98.0625 -111.671875 C 101.34375 -112.859375 105.21875 -113.382812 109.6875 -113.25 C 112.894531 -113.101562 116.066406 -112.75 119.203125 -112.1875 C 122.347656 -111.632812 124.96875 -110.519531 127.0625 -108.84375 C 129.15625 -107.175781 130.0625 -104.457031 129.78125 -100.6875 Z M 67.40625 -33.90625 C 73.40625 -34.46875 77.9375 -36.597656 81 -40.296875 C 84.070312 -43.992188 85.609375 -49.539062 85.609375 -56.9375 C 85.609375 -63.070312 84.109375 -68.300781 81.109375 -72.625 C 78.109375 -76.957031 73.539062 -79.054688 67.40625 -78.921875 C 61.6875 -78.773438 57.007812 -76.890625 53.375 -73.265625 C 50.03125 -69.640625 48.425781 -63.914062 48.5625 -56.09375 C 48.976562 -48.144531 50.648438 -42.457031 53.578125 -39.03125 C 56.515625 -35.613281 61.125 -33.90625 67.40625 -33.90625 Z M 67.40625 -33.90625 "/></g></g></g><g fill="#225f87" fill-opacity="1"><g transform="translate(292.121157, 188.799398)"><g><path d="M 11.515625 -10.25 L 11.515625 -101.3125 C 11.515625 -105.21875 12.59375 -108.007812 14.75 -109.6875 C 16.914062 -111.363281 19.5 -112.410156 22.5 -112.828125 C 25.5 -113.242188 28.328125 -113.453125 30.984375 -113.453125 C 34.742188 -113.453125 38.226562 -113.273438 41.4375 -112.921875 C 44.65625 -112.578125 47.273438 -111.773438 49.296875 -110.515625 C 51.316406 -109.265625 52.328125 -107.242188 52.328125 -104.453125 L 51.90625 -95.65625 C 54.5625 -99.707031 57.703125 -102.847656 61.328125 -105.078125 C 64.960938 -107.316406 68.660156 -108.921875 72.421875 -109.890625 C 76.191406 -110.867188 79.472656 -111.359375 82.265625 -111.359375 C 87.015625 -111.359375 90.363281 -110.585938 92.3125 -109.046875 C 94.269531 -107.515625 95.488281 -105.457031 95.96875 -102.875 C 96.457031 -100.300781 96.703125 -97.269531 96.703125 -93.78125 C 96.703125 -90.289062 96.457031 -87.21875 95.96875 -84.5625 C 95.488281 -81.914062 94.304688 -79.820312 92.421875 -78.28125 C 90.535156 -76.75 87.429688 -75.773438 83.109375 -75.359375 C 78.078125 -74.796875 73.117188 -73.503906 68.234375 -71.484375 C 63.359375 -69.460938 59.242188 -65.378906 55.890625 -59.234375 L 54.421875 -10.890625 C 54.703125 -6.984375 53.832031 -4.15625 51.8125 -2.40625 C 49.789062 -0.664062 47.171875 0.445312 43.953125 0.9375 C 40.742188 1.425781 37.257812 1.671875 33.5 1.671875 C 30.007812 1.671875 26.585938 1.425781 23.234375 0.9375 C 19.890625 0.445312 17.171875 -0.628906 15.078125 -2.296875 C 12.984375 -3.972656 11.796875 -6.625 11.515625 -10.25 Z M 11.515625 -10.25 "/></g></g></g><g fill="#225f87" fill-opacity="1"><g transform="translate(388.826249, 188.799398)"><g><path d="M 11.9375 -9 L 12.34375 -143.1875 C 12.625 -147.09375 14.125 -149.953125 16.84375 -151.765625 C 19.570312 -153.578125 22.710938 -154.691406 26.265625 -155.109375 C 29.828125 -155.523438 32.929688 -155.597656 35.578125 -155.328125 C 39.347656 -155.179688 42.941406 -154.796875 46.359375 -154.171875 C 49.785156 -153.546875 52.472656 -152.148438 54.421875 -149.984375 C 56.378906 -147.816406 57.078125 -144.289062 56.515625 -139.40625 C 56.515625 -137.457031 56.476562 -134.351562 56.40625 -130.09375 C 56.34375 -125.84375 56.273438 -121.65625 56.203125 -117.53125 C 56.128906 -113.414062 56.09375 -110.3125 56.09375 -108.21875 C 58.613281 -110.3125 61.894531 -111.914062 65.9375 -113.03125 C 69.988281 -114.15625 73.546875 -114.785156 76.609375 -114.921875 C 90.984375 -115.484375 102.359375 -113.144531 110.734375 -107.90625 C 119.109375 -102.675781 125.210938 -95.453125 129.046875 -86.234375 C 132.890625 -77.023438 134.945312 -66.628906 135.21875 -55.046875 C 134.519531 -42.765625 131.519531 -32.265625 126.21875 -23.546875 C 120.914062 -14.828125 113.832031 -8.195312 104.96875 -3.65625 C 96.113281 0.875 85.894531 3 74.3125 2.71875 C 69.84375 2.4375 65.617188 1.5625 61.640625 0.09375 C 57.671875 -1.363281 54.566406 -3.347656 52.328125 -5.859375 C 50.097656 -2.515625 47.0625 -0.320312 43.21875 0.71875 C 39.382812 1.769531 36.070312 2.296875 33.28125 2.296875 C 29.9375 2.296875 26.65625 2.085938 23.4375 1.671875 C 20.226562 1.253906 17.578125 0.242188 15.484375 -1.359375 C 13.390625 -2.960938 12.207031 -5.507812 11.9375 -9 Z M 53.171875 -62.171875 L 53.171875 -51.28125 C 53.722656 -44.300781 55.8125 -39.59375 59.4375 -37.15625 C 63.070312 -34.71875 67.332031 -33.425781 72.21875 -33.28125 C 74.875 -33.28125 77.628906 -34.148438 80.484375 -35.890625 C 83.347656 -37.640625 85.789062 -40.1875 87.8125 -43.53125 C 89.832031 -46.882812 90.84375 -51.003906 90.84375 -55.890625 C 90.988281 -63.421875 89.316406 -69.347656 85.828125 -73.671875 C 82.335938 -78.003906 77.660156 -80.171875 71.796875 -80.171875 C 65.796875 -79.890625 61.191406 -78.351562 57.984375 -75.5625 C 54.773438 -72.769531 53.171875 -68.304688 53.171875 -62.171875 Z M 53.171875 -62.171875 "/></g></g></g><g fill="#225f87" fill-opacity="1"><g transform="translate(529.069547, 188.799398)"><g><path d="M 62.171875 -113.875 L 62.375 -113.875 C 83.164062 -114.4375 98.757812 -109.796875 109.15625 -99.953125 C 119.5625 -90.117188 124.898438 -76.6875 125.171875 -59.65625 C 125.171875 -51.425781 124.226562 -43.679688 122.34375 -36.421875 C 120.46875 -29.160156 117.296875 -22.703125 112.828125 -17.046875 C 108.359375 -11.398438 102.25 -6.867188 94.5 -3.453125 C 86.757812 -0.0351562 77.097656 1.878906 65.515625 2.296875 C 54.359375 2.441406 44.207031 0.523438 35.0625 -3.453125 C 25.914062 -7.429688 18.625 -13.535156 13.1875 -21.765625 C 7.75 -30.003906 5.03125 -40.265625 5.03125 -52.546875 C 5.03125 -73.054688 9.84375 -88.195312 19.46875 -97.96875 C 29.09375 -107.738281 43.328125 -113.039062 62.171875 -113.875 Z M 64.6875 -33.28125 C 71.101562 -33.5625 75.390625 -36.039062 77.546875 -40.71875 C 79.710938 -45.394531 80.796875 -51.429688 80.796875 -58.828125 C 80.796875 -66.492188 79.609375 -71.6875 77.234375 -74.40625 C 74.867188 -77.132812 70.753906 -78.425781 64.890625 -78.28125 C 59.023438 -78.144531 55.046875 -76.226562 52.953125 -72.53125 C 50.859375 -68.832031 49.8125 -62.796875 49.8125 -54.421875 C 49.8125 -46.328125 51.066406 -40.742188 53.578125 -37.671875 C 56.097656 -34.609375 59.800781 -33.144531 64.6875 -33.28125 Z M 64.6875 -33.28125 "/></g></g></g><g fill="#225f87" fill-opacity="1"><g transform="translate(659.474856, 188.799398)"><g><path d="M 11.515625 -10.25 L 11.515625 -101.3125 C 11.515625 -105.21875 12.59375 -108.007812 14.75 -109.6875 C 16.914062 -111.363281 19.5 -112.410156 22.5 -112.828125 C 25.5 -113.242188 28.328125 -113.453125 30.984375 -113.453125 C 34.742188 -113.453125 38.226562 -113.273438 41.4375 -112.921875 C 44.65625 -112.578125 47.273438 -111.773438 49.296875 -110.515625 C 51.316406 -109.265625 52.328125 -107.242188 52.328125 -104.453125 L 51.90625 -95.65625 C 54.5625 -99.707031 57.703125 -102.847656 61.328125 -105.078125 C 64.960938 -107.316406 68.660156 -108.921875 72.421875 -109.890625 C 76.191406 -110.867188 79.472656 -111.359375 82.265625 -111.359375 C 87.015625 -111.359375 90.363281 -110.585938 92.3125 -109.046875 C 94.269531 -107.515625 95.488281 -105.457031 95.96875 -102.875 C 96.457031 -100.300781 96.703125 -97.269531 96.703125 -93.78125 C 96.703125 -90.289062 96.457031 -87.21875 95.96875 -84.5625 C 95.488281 -81.914062 94.304688 -79.820312 92.421875 -78.28125 C 90.535156 -76.75 87.429688 -75.773438 83.109375 -75.359375 C 78.078125 -74.796875 73.117188 -73.503906 68.234375 -71.484375 C 63.359375 -69.460938 59.242188 -65.378906 55.890625 -59.234375 L 54.421875 -10.890625 C 54.703125 -6.984375 53.832031 -4.15625 51.8125 -2.40625 C 49.789062 -0.664062 47.171875 0.445312 43.953125 0.9375 C 40.742188 1.425781 37.257812 1.671875 33.5 1.671875 C 30.007812 1.671875 26.585938 1.425781 23.234375 0.9375 C 19.890625 0.445312 17.171875 -0.628906 15.078125 -2.296875 C 12.984375 -3.972656 11.796875 -6.625 11.515625 -10.25 Z M 11.515625 -10.25 "/></g></g></g></svg>